<?xml version="1.0" encoding="UTF-8"?>
<svg width="700pt" height="700pt" version="1.1" viewBox="0 0 700 700" xmlns="http://www.w3.org/2000/svg">
 <path d="m350 0c-24.754 0-48.492 9.832-65.996 27.336-17.504 17.504-27.336 41.242-27.336 65.996v46.668h-20.066c-11.211-0.13672-22.094 3.7617-30.664 10.988-8.5664 7.2266-14.25 17.297-16.004 28.367l-52.266 326.67c-2.1562 13.586 1.7891 27.43 10.785 37.836 8.9961 10.402 22.125 16.312 35.879 16.141h331.34c13.754 0.17188 26.883-5.7383 35.879-16.141 8.9961-10.406 12.941-24.25 10.785-37.836l-52.266-326.67c-1.7539-11.07-7.4375-21.141-16.004-28.367-8.5703-7.2266-19.453-11.125-30.664-10.988h-20.066v-46.668c0-24.754-9.832-48.492-27.336-65.996-17.504-17.504-41.242-27.336-65.996-27.336zm113.4 171.11c3.7305-0.046875 7.3516 1.2461 10.207 3.6445 2.8555 2.3984 4.7539 5.7422 5.3516 9.4258l52.266 326.67v-0.003906c0.76172 4.5-0.48828 9.1055-3.4219 12.602-2.9922 3.4961-7.3789 5.4883-11.98 5.4453h-331.49c-4.6016 0.042969-8.9844-1.9492-11.977-5.4453-2.9336-3.4961-4.1836-8.1016-3.4219-12.602l52.266-326.67v0.003907c0.59766-3.6836 2.4961-7.0273 5.3516-9.4258 2.8555-2.3984 6.4766-3.6914 10.203-3.6445h19.914v46.668c0 5.5586 2.9648 10.691 7.7773 13.473 4.8125 2.7773 10.742 2.7773 15.555 0 4.8125-2.7812 7.7773-7.9141 7.7773-13.473v-124.45c0-22.23 11.859-42.77 31.113-53.883 19.25-11.117 42.969-11.117 62.219 0 19.254 11.113 31.113 31.652 31.113 53.883v46.668h-93.332c-5.5586 0-10.695 2.9648-13.473 7.7773-2.7812 4.8125-2.7812 10.742 0 15.555 2.7773 4.8125 7.9141 7.7773 13.473 7.7773h93.332v46.668c0 5.5586 2.9648 10.691 7.7773 13.473 4.8125 2.7773 10.742 2.7773 15.555 0 4.8125-2.7812 7.7773-7.9141 7.7773-13.473v-46.668z"/>
</svg>
